<?xml version="1.0" encoding="utf-8"?>
<!-- Generated by IcoMoon.io -->
<!DOCTYPE svg PUBLIC "-//W3C//DTD SVG 1.1//EN" "http://www.w3.org/Graphics/SVG/1.1/DTD/svg11.dtd">
<svg version="1.1" xmlns="http://www.w3.org/2000/svg" xmlns:xlink="http://www.w3.org/1999/xlink" width="50" height="50" viewBox="0 0 50 50">
<path d="M25 0c-13.8 0-25 11.2-25 25s11.2 25 25 25c13.8 0 25-11.2 25-25s-11.2-25-25-25zM31.6 40.2c-2.1-0.2-16-3.5-21.8-20-1.2-3.5 0.3-9 4.2-10.3 4-1.3 6.1 4.3 6.7 7.9l-3.5 3.5c0 0-0.1 2.2 4.7 7s7 4.7 7 4.7l4.1-4.1c2.6 0.5 7.7 3.8 7.7 3.8-0.7 4.8-4 8-9.1 7.5z" fill="#FFF"></path>
</svg>
